<?xml version="1.0" encoding="UTF-8"?>
<svg id="Layer_1" data-name="Layer 1" xmlns="http://www.w3.org/2000/svg" viewBox="0 0 543.94 543.94">
  <g>
    <path d="M413.44,397.44c.39.65,1.74,4.95,1.67,5.54-.12,1.09-5.43,6.62-6.6,7.79-4.67,4.66-13.01,12.38-18.65,15.42-2.53,1.37-3.44,2.17-6.27.73-1.63-.82-5.39-4.91-6.81-6.44-7.11-7.67-13.65-16.44-20.62-24.33-13.66-15.45-27.85-31.42-42-46.41-17.06-18.09-34.59-35.13-51.22-53.77-26.39-29.58-50.84-63.91-79.51-90.86-3.34-3.14-8.14-6.31-11.11-9.71-2.08-2.38-3.17-5.51-4.81-8.08-1.85-2.86-2.59-2.15-5.06-3.78-3.97-2.63-9.58-8.69-13.13-10.44-2.85-1.41-3.83-1.31-6.73-.44-6.33,1.92-12.35,5.63-16.06,11.2-1.93,2.9-2.96,6.95-4.86,9.51-.98,1.33-8.6,8.32-10.13,9.39-1.86,1.3-2.96.73-4.61-.55-3.67-2.83-7.85-8.15-11.22-11.62-1.36-1.4-3.17-2.67-4.62-4.21-1.53-1.62-5.27-5.28-4.22-7.55,3.28-2.57,6.38-6.32,9.58-8.84,2.68-2.11,3.65-1.42,6.51-2.33,7.49-2.37,12.94-7.44,15.83-14.75,1.23-3.09,1.77-8.74,3.8-10.93,3.73-4.04,11.9-8.89,16.57-12.53,6.51-5.09,12.54-11.69,20.37-14.63,16.61-6.24,51.43-3.23,69.49-.78,1.46.2,5.44.6,5.97,2.15.63,1.9-.98,2.79-.94,3.15.03.32,1.19.56,1.41,1.16.67,1.93-.1,3.84-1.61,5.09-.84.69-.93.8-2.2.93-4.49.43-9.78,0-14.38.36-8.29.62-18.56,2.3-26.63,4.31-3.31.82-16.02,4.47-16.27,8.44-.12,1.92,4.61,6.4,5.89,8.08,3.06,4.06,6.15,8.46,8.29,13.07.41.89.37,2.03.94,2.74.76.96,5.16,3.37,6.58,4.47,7.09,5.51,14.54,16.66,20.84,23.73,24.76,27.82,52.76,52.42,78.52,79.33,23.38,24.42,44.8,50.68,68.04,75.26,12.24,12.95,25.1,25.36,37.63,38.08,3.42,3.47,9.89,9.07,12.36,13.06ZM252.29,258.01c.31-.68-6.42-7.38-7.39-8.47-8.71-9.68-17.47-20.54-26.51-29.84-.55-.57-1-1.03-1.67-1.47-.1-.29-.06-.67-.35-.93l-16.58-18.81c-1.03-.56-3.78,3.11-4.77,3.71,5.28,6.44,10.77,12.65,16.32,18.79,5.21,5.78,10.48,11.5,15.71,17.31,5.37,5.96,10.57,12.55,16.2,18.43.8.84,4.18,4.48,4.8,4.8.96.5,3.32-2.96,4.26-3.52ZM132.36,161.13l-.37-1.1-1.29.73-.19-.73c-.67-.14-.23.62-.37.73-.71.6-.73-.58-.81-.63-1.58-1.12-2.37.85-2.54.96-.15.1-.7-.44-1-.29-.16.09-2.18,2.67-2.26,2.83-1.26,2.43.74,3.07.75,3.26.04.52-.51,1.03-.39,1.61,1.13-1.57,2.56-2.02,3.92-3.07.34-.27.51-.98,1.04-1.36.36-.27,3.02-1.34,3.14-1.46.63-.72-.67-.68-.74-.92-.26-.96.9-.37,1.11-.55ZM118.53,178.43l3.51-6.25c-.27-.29-1.71,1.25-1.97,1.51-.57.59-1.36,1.51-1.9,2.16-1.06,1.27-3.19,4.88-4.03,5.54-1.39,1.1-3.63.22-.74,2.94l5.13-5.91Z"/>
    <path d="M244.89,249.54c.98,1.09,7.7,7.79,7.39,8.47-.93.56-3.3,4.01-4.26,3.52-.62-.32-4-3.96-4.8-4.8-5.62-5.88-10.83-12.47-16.2-18.43-5.23-5.81-10.5-11.53-15.71-17.31l1.06-.95c.28.36.9.03.96.1.34.41.12,2.05,1.54,1.63.22-.06,2.12-1.8,2.16-1.94.11-.39-.19-1.17-.33-1.61.67.45,1.11.9,1.67,1.47,9.05,9.3,17.8,20.17,26.51,29.84Z"/>
    <path d="M216.72,218.23c.14.44.45,1.21.33,1.61-.04.14-1.95,1.87-2.16,1.94-1.42.42-1.2-1.22-1.54-1.63-.06-.07-.68.26-.96-.1-.04-.04-.06-.1-.09-.17-.04-.17,1.55-2.74,1.71-2.77,1.48-.33,1.36.9,1.87,1.13.27.11.73-.08.84,0Z"/>
    <path d="M216.72,218.23c-.11-.07-.57.12-.84,0-.51-.22-.39-1.46-1.87-1.13-.16.03-1.74,2.6-1.71,2.77.02.06.05.12.09.17l-1.06.95c-5.55-6.15-11.03-12.36-16.32-18.79,1-.6,3.75-4.27,4.77-3.71l16.58,18.81c.29.26.25.63.35.93Z"/>
    <path d="M131.99,160.03l.37,1.1c-.22.18-1.37-.41-1.11.55.06.24,1.37.2.74.92-.11.13-2.78,1.2-3.14,1.46-.53.38-.7,1.1-1.04,1.36-1.36,1.06-2.79,1.51-3.92,3.07-.12-.58.43-1.08.39-1.61,0-.19-2-.83-.75-3.26.08-.16,2.1-2.74,2.26-2.83.3-.15.85.39,1,.29.17-.11.96-2.08,2.54-.96.08.05.1,1.23.81.63.14-.11-.3-.88.37-.73l.19.73,1.29-.73Z"/>
    <path d="M122.04,172.18l-3.51,6.25-5.13,5.91c-2.89-2.71-.65-1.84.74-2.94.84-.66,2.97-4.27,4.03-5.54.55-.65,1.34-1.57,1.9-2.16.26-.27,1.69-1.8,1.97-1.51Z"/>
  </g>
  <path d="M389.97,112.07c.41,5.96-16.52,24.44-16.67,30.08-.12,4.65,9.07,11.47,13.28,12.86,3.53,1.16,15.28.31,18.38-1.85,6.72-4.7,14.83-23.17,20.91-29.91,6.22-5.64,7.96,15.59,8.21,18.58,1.26,15.51-1.43,31.79-15.91,41.36-16.04,10.6-34.92,3.8-50.23,16.19l-162.66,162.6c-9.78,11.62-2.75,19.83-4.84,31.59-3.01,16.96-16.02,32.19-30.87,40.98-4.65,2.76-21.52,10.97-22.12,1.46-.34-5.36,17.83-25.16,18.96-33.57,2.23-16.53-19.19-24.78-31.55-13.66-7,8.74-11.77,19.08-18.22,28.25-8.84,5.07-9.7-9.06-9.88-14.83-.36-11.38,2.88-29.3,10.6-38.54,17.73-21.23,40.21-7.04,59.39-24.84l160.44-160.49c12.42-15.04.72-27.87,8.3-41.09,5.47-9.53,19.55-20.86,29.38-25.77,4-2,14.6-6.93,15.12.58Z"/>
</svg>